<?xml version="1.0" encoding="UTF-8"?>
<svg width="176px" height="66px" viewBox="0 0 176 66" version="1.1" xmlns="http://www.w3.org/2000/svg" xmlns:xlink="http://www.w3.org/1999/xlink">
    <title>2</title>
    <g id="Welcome" stroke="none" stroke-width="1" fill="none" fill-rule="evenodd">
        <g id="Logo-poisk-ua" transform="translate(-296.000000, -156.000000)">
            <g id="Group" transform="translate(131.000000, 51.000000)">
                <g id="2" transform="translate(165.000000, 105.000000)">
                    <g id="Group-2" transform="translate(110.000000, 0.000000)" fill="#4A90E2">
                        <path d="M22.616499,0 C35.1072466,0 45.2329981,10.1257515 45.2329981,22.616499 C45.2329981,35.1072466 35.1072466,45.2329981 22.616499,45.2329981 C10.1257515,45.2329981 0,35.1072466 0,22.616499 C0,10.1257515 10.1257515,0 22.616499,0 Z M29.9198987,15.798451 C28.3953372,15.798451 27.1988461,15.9335388 26.330425,16.2037141 C25.2497234,16.5510825 24.7093724,17.3905562 24.7093724,18.7221352 C24.7093724,19.0695036 24.7769161,19.2769599 24.912004,19.3445036 C25.0470918,19.4120473 25.3848108,19.3879246 25.9251619,19.2721352 C27.0444603,19.0598546 28.1348108,18.9537141 29.1962145,18.9537141 C31.3576181,18.9537141 32.4383198,19.6966967 32.4383198,21.1826615 L32.4383198,21.5589773 C30.5856882,21.4045915 29.5049866,21.3273983 29.1962145,21.3273983 C27.2277934,21.3273983 25.8093724,21.6458194 24.9409513,22.2826615 C24.0725303,22.9195036 23.6383198,23.9230125 23.6383198,25.2931878 C23.6383198,28.1493283 25.2593724,29.5773983 28.5014777,29.5773983 C30.2962145,29.5773983 31.7049866,29.1238894 32.7277934,28.216872 C33.152355,29.0852931 34.0690214,29.5195036 35.4777934,29.5195036 C35.8251619,29.5195036 36.0326181,29.4423105 36.1001619,29.2879246 C36.1677056,29.1335388 36.2014777,28.7861704 36.2014777,28.2458194 L36.2014777,20.6037141 C36.2014777,19.7738894 36.0374424,19.0453809 35.7093724,18.4181878 C35.3813024,17.7909947 34.9905129,17.3181878 34.537004,16.9997668 C34.083495,16.6813457 33.5431445,16.4256441 32.9159513,16.2326615 C32.2887582,16.0396789 31.7484076,15.9190651 31.2948987,15.8708194 C30.8413898,15.8225736 30.3830566,15.798451 29.9198987,15.798451 Z M18.2251619,16.0010825 C17.8777934,16.0010825 17.6703372,16.0782757 17.6027934,16.2326615 C17.5352497,16.3870473 17.5014777,16.7344157 17.5014777,17.2747668 L17.5014777,23.6142404 C17.4049866,25.2931878 16.5172671,26.1326615 14.8383198,26.1326615 C13.9506003,26.1326615 13.3089339,25.9010825 12.9133198,25.4379246 C12.5177056,24.9747668 12.3198987,24.376521 12.3198987,23.6431878 L12.3198987,19.0116089 C12.3198987,17.9502052 12.0883198,17.1830999 11.6251619,16.7102931 C11.162004,16.2374862 10.390074,16.0010825 9.30937239,16.0010825 C8.96200397,16.0010825 8.75454768,16.0782757 8.68700397,16.2326615 C8.61946025,16.3870473 8.58568818,16.7344157 8.58568818,17.2747668 L8.58568818,23.7010825 C8.58568818,27.5993283 10.2935829,29.548451 13.7093724,29.548451 C15.3883198,29.548451 16.7102497,29.0177494 17.6751619,27.9563457 C18.0225303,28.998451 18.9777934,29.5195036 20.5409513,29.5195036 C20.8883198,29.5195036 21.095776,29.4423105 21.1633198,29.2879246 C21.2308635,29.1335388 21.2646355,28.7861704 21.2646355,28.2458194 L21.2646355,19.0116089 C21.2646355,17.9502052 21.0282319,17.1830999 20.555425,16.7102931 C20.0826181,16.2374862 19.3058635,16.0010825 18.2251619,16.0010825 Z M30.0935829,24.1642404 C31.0391971,24.1642404 31.820776,24.2221352 32.4383198,24.3379246 L32.4383198,25.7563457 C31.6856882,26.3352931 30.7497234,26.6247668 29.630425,26.6247668 C28.1251619,26.6247668 27.3725303,26.1905562 27.3725303,25.3221352 C27.3725303,24.8589773 27.5848108,24.5502052 28.0093724,24.3958194 C28.4339339,24.2414336 29.1286708,24.1642404 30.0935829,24.1642404 Z" id="Combined-Shape"></path>
                        <g id="vr-glass" transform="translate(2.826290, 2.824767)" fill-rule="nonzero">
                            <path d="M35.879596,42.8527431 C35.7497108,42.8527431 35.6198256,42.8031686 35.5206767,42.7040196 L29.9527183,37.1363092 C29.8575353,37.0411262 29.8039948,36.9122325 29.8039948,36.7773899 C29.8039948,36.6425473 29.8575353,36.5136536 29.9527183,36.4184706 L36.4169834,29.9539576 C36.6073494,29.7635916 36.9444559,29.7635916 37.1348219,29.9539576 L42.7027803,35.5221639 C42.9010782,35.7204618 42.9010782,36.0417045 42.7027803,36.2400024 L36.2385152,42.7040196 C36.1393662,42.8031687 36.0094811,42.8527431 35.879596,42.8527431 L35.879596,42.8527431 Z M31.0294762,36.7773899 L35.879596,41.6272618 L41.6260225,35.8810832 L36.7759027,31.0307155 L31.0294762,36.7773899 Z" id="Shape"></path>
                            <path d="M19.7902793,39.1297819 C14.8358052,39.1297819 9.88133105,37.2439684 6.10970418,33.4723416 C-1.43354956,25.9288399 -1.43354956,13.654693 6.10970418,6.11119142 C13.6529579,-1.43206232 25.9276006,-1.43206232 33.4708543,6.11119142 C41.0143559,13.654693 41.0143559,25.9288399 33.4708543,33.4723416 C29.6992274,37.2439684 24.7447534,39.1297819 19.7902793,39.1297819 Z M19.7902793,1.46854085 C15.0958233,1.46854085 10.4013674,3.25545317 6.82754273,6.82902998 C-0.319858714,13.9766793 -0.319858714,25.6068537 6.82754273,32.754503 C10.2900727,36.2167851 14.8935594,38.1239155 19.7902793,38.1239155 C24.6869991,38.1239155 29.2904858,36.2167851 32.7530158,32.754503 C36.2155458,29.2922209 38.1224283,24.6884863 38.1224283,19.7917665 C38.1224283,14.8950466 36.2155457,10.2915599 32.7530158,6.82902993 C29.1791911,3.25545322 24.4847352,1.46854085 19.7902793,1.46854085 L19.7902793,1.46854085 Z" id="Shape"></path>
                            <path d="M55.1278815,61.6583285 C53.4770512,61.6583285 51.8259729,61.029724 50.5692597,59.7730108 L34.5105965,43.7143477 C34.3122986,43.5160497 34.3122986,43.194807 34.5105965,42.9965091 L42.994774,34.5118359 C43.18514,34.3214699 43.5222465,34.3214699 43.7126125,34.5118359 L59.7715235,50.5709948 C60.9890729,51.7885441 61.6598157,53.4071511 61.6598157,55.1293687 C61.6598157,56.8515863 60.9890729,58.4706891 59.7715235,59.6882384 L59.6867512,59.7730108 C58.430038,61.029724 56.7789598,61.6583285 55.1278815,61.6583285 L55.1278815,61.6583285 Z M35.5873544,43.3554284 L51.2870982,59.0551723 C52.3130422,60.0808684 53.6770842,60.6460175 55.1278815,60.6460175 C56.5789267,60.6460175 57.9429687,60.0808684 58.9689127,59.0551723 L59.0536851,58.9703999 C60.0793812,57.944208 60.6445303,56.5804139 60.6445303,55.1293687 C60.6445303,53.6783235 60.0796291,52.3145294 59.0536851,51.2888333 L43.3536933,35.5885937 L35.5873544,43.3554284 Z" id="Shape"></path>
                        </g>
                    </g>
                    <g id="Group-6" transform="translate(0.112004, 0.193188)">
                        <path d="M3.92387218,42.3345865 C4.83289496,42.3345865 5.4193609,42.2026316 5.68327068,41.9387218 C5.94718045,41.674812 6.07913534,41.073684 6.07913534,40.1353383 L6.07913534,30.5026316 C7.57462406,31.851504 9.62725586,32.5259398 12.2370301,32.5259398 C15.3746238,32.5259398 17.7937968,31.5802632 19.4945489,29.6889098 C21.195301,27.7975564 22.0456767,25.2684211 22.0456767,22.1015038 C22.0456767,18.9052629 21.1879699,16.3468047 19.4725564,14.4261278 C17.7571429,12.5054509 15.3599624,11.5451128 12.281015,11.5451128 C9.49530098,11.5451128 7.29605286,12.3808271 5.68327068,14.0522556 C5.1261276,12.5860904 3.7332709,11.8530075 1.50469925,11.8530075 C0.976879699,11.8530075 0.661653912,11.970301 0.559022556,12.2048872 C0.456391201,12.4394735 0.405075188,12.967293 0.405075188,13.7883459 L0.405075188,40.1353383 C0.405075188,41.073684 0.537030075,41.674812 0.80093985,41.9387218 C1.06484962,42.2026316 1.66597767,42.3345865 2.60432331,42.3345865 L3.92387218,42.3345865 Z M10.7855263,27.3357143 C9.11409774,27.3357143 7.84586489,26.8298872 6.98082707,25.8182331 C6.11578925,24.8065789 5.68327068,23.5530075 5.68327068,22.0575188 C5.68327068,20.5620301 6.11578925,19.3011276 6.98082707,18.274812 C7.84586489,17.2484965 9.11409774,16.7353383 10.7855263,16.7353383 C12.4569549,16.7353383 13.7251877,17.2484965 14.5902256,18.274812 C15.4552634,19.3011276 15.887782,20.5620301 15.887782,22.0575188 C15.887782,23.5530075 15.4552634,24.8065789 14.5902256,25.8182331 C13.7251877,26.8298872 12.4569549,27.3357143 10.7855263,27.3357143 Z M36.1648496,32.5699248 C39.6836466,32.5699248 42.4253757,31.6315792 44.3900376,29.7548872 C46.3546995,27.8781953 47.3370301,25.3270674 47.3370301,22.1015038 C47.3370301,18.8759401 46.3473684,16.3101502 44.3680451,14.4041353 C42.3887218,12.4981205 39.6543231,11.5451128 36.1648496,11.5451128 C32.6167291,11.5451128 29.8530075,12.4981205 27.8736842,14.4041353 C25.8943609,16.3101502 24.9046992,18.8759401 24.9046992,22.1015038 C24.9046992,25.3270674 25.8870299,27.8781953 27.8516917,29.7548872 C29.8163536,31.6315792 32.5874062,32.5699248 36.1648496,32.5699248 Z M36.1648496,27.5556391 C34.5520674,27.5556391 33.2618421,27.049812 32.2941729,26.0381579 C31.3265038,25.0265038 30.8426692,23.7142859 30.8426692,22.1015038 C30.8426692,20.4887216 31.3265038,19.1618423 32.2941729,18.1208647 C33.2618421,17.079887 34.5520674,16.5593985 36.1648496,16.5593985 C37.7483083,16.5593985 39.0165411,17.079887 39.9695489,18.1208647 C40.9225566,19.1618423 41.3990602,20.4887216 41.3990602,22.1015038 C41.3990602,23.7142859 40.929887,25.0265038 39.9915414,26.0381579 C39.0531957,27.049812 37.7776318,27.5556391 36.1648496,27.5556391 Z M54.5065789,6.97067669 C55.5035717,6.97067669 56.3099624,6.68477444 56.9257519,6.11296992 C57.5415414,5.54116541 57.8494361,4.78609 57.8494361,3.84774436 C57.8494361,2.93872158 57.5415414,2.19830827 56.9257519,1.62650376 C56.3099624,1.05469925 55.5035717,0.768796992 54.5065789,0.768796992 C53.5095862,0.768796992 52.7031955,1.05469925 52.087406,1.62650376 C51.4716165,2.19830827 51.1637218,2.93872158 51.1637218,3.84774436 C51.1637218,4.78609 51.4716165,5.54116541 52.087406,6.11296992 C52.7031955,6.68477444 53.5095862,6.97067669 54.5065789,6.97067669 Z M55.0783835,32.2180451 C56.0167291,32.2180451 56.6178571,32.0860902 56.8817669,31.8221805 C57.1456767,31.5582707 57.2776316,30.9571426 57.2776316,30.018797 L57.2776316,16.4274436 C57.2776316,14.8146614 56.9257519,13.6490599 56.2219925,12.9306391 C55.5182331,12.2122183 54.3453005,11.8530075 52.7031955,11.8530075 C52.1753759,11.8530075 51.8601502,11.970301 51.7575188,12.2048872 C51.6548874,12.4394735 51.6035714,12.967293 51.6035714,13.7883459 L51.6035714,30.018797 C51.6035714,30.9571426 51.7428574,31.5582707 52.0214286,31.8221805 C52.2999998,32.0860902 52.8937968,32.2180451 53.8028195,32.2180451 L55.0783835,32.2180451 Z M70.1212406,32.4819549 C71.3821431,32.4819549 72.51109,32.401316 73.5080827,32.2400376 C74.5050754,32.0787592 75.4947371,31.7855265 76.4770677,31.3603383 C77.4593983,30.9351502 78.2218047,30.2753757 78.7642857,29.381015 C79.3067667,28.4866544 79.5780075,27.3650378 79.5780075,26.0161654 C79.5780075,24.5500002 79.1748118,23.3550752 78.3684211,22.431391 C77.5620303,21.5077068 76.5870301,20.8625938 75.4434211,20.4960526 C74.299812,20.1295115 73.148872,19.8362782 71.9906015,19.6163534 C70.8323311,19.3964286 69.8499998,19.1398498 69.043609,18.8466165 C68.2372183,18.5533832 67.8340226,18.1428571 67.8340226,17.6150376 C67.8340226,16.676692 69.1242479,16.2075188 71.7046992,16.2075188 C73.200188,16.2075188 74.9742479,16.4127822 77.0268797,16.8233083 C77.8772554,16.9699246 78.405075,16.9919171 78.6103383,16.8892857 C78.8156017,16.7866544 78.9182331,16.4127822 78.9182331,15.7676692 C78.9182331,13.9789471 77.9505639,12.7766917 76.0152256,12.1609023 C74.6370303,11.7503762 73.1415416,11.5451128 71.5287594,11.5451128 C65.4588346,11.5451128 62.4238722,13.6857145 62.4238722,17.9669173 C62.4238722,19.3744361 62.8270679,20.5180451 63.6334586,21.3977444 C64.4398494,22.2774436 65.4148496,22.885902 66.5584586,23.2231203 C67.7020677,23.5603386 68.8530077,23.8315787 70.0112782,24.0368421 C71.1695486,24.2421055 72.1518799,24.4986842 72.9582707,24.8065789 C73.7646614,25.1144737 74.1678571,25.5616544 74.1678571,26.1481203 C74.1678571,27.3503757 72.7896619,27.9515038 70.0332707,27.9515038 C68.1565787,27.9515038 66.118609,27.5703005 63.9193609,26.8078947 C63.332895,26.6026314 62.8930453,26.5 62.599812,26.5 C62.3359023,26.5 62.1672935,26.5879699 62.093985,26.7639098 C62.0206765,26.9398496 61.9840226,27.2770679 61.9840226,27.7755639 C61.9840226,29.974812 62.8783832,31.3236844 64.6671053,31.8221805 C66.1919175,32.2620301 68.0099624,32.4819549 70.1212406,32.4819549 Z M86.9674812,32.2180451 C87.876504,32.2180451 88.4629699,32.0860902 88.7268797,31.8221805 C88.9907895,31.5582707 89.1227444,30.9571426 89.1227444,30.018797 L89.1227444,22.1894737 L95.6325188,30.5906015 C96.101692,31.2943609 96.5635341,31.7415416 97.0180451,31.9321429 C97.4725562,32.1227441 98.1543231,32.2180451 99.0633459,32.2180451 L101.174624,32.2180451 C102.11297,32.2180451 102.582143,31.9541353 102.582143,31.4263158 C102.582143,31.1037596 102.406203,30.7225564 102.054323,30.2827068 L94.9287594,21.1338346 L102.098308,13.7883459 C102.596804,13.2898498 102.73609,12.8426692 102.516165,12.4468045 C102.296241,12.0509398 101.775752,11.8530075 100.954699,11.8530075 L98.9753759,11.8530075 C97.9490604,11.8530075 97.2233085,11.9776314 96.7981203,12.2268797 C96.3729321,12.476128 95.6178574,13.157895 94.5328947,14.2721805 L89.1227444,19.8142857 L89.1227444,4.81541353 C89.1227444,3.20263136 88.7708647,2.03702985 88.0671053,1.31860902 C87.3633459,0.600188194 86.1904133,0.240977444 84.5483083,0.240977444 C84.0204887,0.240977444 83.7052629,0.3582709 83.6026316,0.592857143 C83.5000002,0.827443385 83.4486842,1.35526293 83.4486842,2.17631579 L83.4486842,30.018797 C83.4486842,30.9571426 83.5806391,31.5582707 83.8445489,31.8221805 C84.1084586,32.0860902 84.7095867,32.2180451 85.6479323,32.2180451 L86.9674812,32.2180451 Z" id="poisk" fill="#323438" fill-rule="nonzero"></path>
                        <g id="Group-9" transform="translate(112.714286, 2.631579)"></g>
                    </g>
                </g>
            </g>
        </g>
    </g>
</svg>